<svg width="104" height="33" viewBox="0 0 104 33" fill="none" xmlns="http://www.w3.org/2000/svg">
<path d="M8.99188 9.408H3.39188L2.28788 12H0.143878L5.18388 0.799999H7.23188L12.2879 12H10.1119L8.99188 9.408ZM8.30388 7.776L6.19188 2.88L4.09588 7.776H8.30388ZM23.9574 0.799999V12H21.8774V7.2H16.0854V12H14.0054V0.799999H16.0854V5.424H21.8774V0.799999H23.9574ZM32.2831 12.16C31.1418 12.16 30.1125 11.9147 29.1951 11.424C28.2778 10.9227 27.5578 10.2347 27.0351 9.36C26.5125 8.47467 26.2511 7.488 26.2511 6.4C26.2511 5.312 26.5125 4.33067 27.0351 3.456C27.5578 2.57067 28.2778 1.88267 29.1951 1.392C30.1125 0.890666 31.1418 0.639999 32.2831 0.639999C33.4245 0.639999 34.4538 0.890666 35.3711 1.392C36.2885 1.88267 37.0085 2.56533 37.5311 3.44C38.0538 4.31467 38.3151 5.30133 38.3151 6.4C38.3151 7.49867 38.0538 8.48533 37.5311 9.36C37.0085 10.2347 36.2885 10.9227 35.3711 11.424C34.4538 11.9147 33.4245 12.16 32.2831 12.16ZM32.2831 10.336C33.0298 10.336 33.7018 10.1707 34.2991 9.84C34.8965 9.49867 35.3658 9.02933 35.7071 8.432C36.0485 7.824 36.2191 7.14667 36.2191 6.4C36.2191 5.65333 36.0485 4.98133 35.7071 4.384C35.3658 3.776 34.8965 3.30667 34.2991 2.976C33.7018 2.63467 33.0298 2.464 32.2831 2.464C31.5365 2.464 30.8645 2.63467 30.2671 2.976C29.6698 3.30667 29.2005 3.776 28.8591 4.384C28.5178 4.98133 28.3471 5.65333 28.3471 6.4C28.3471 7.14667 28.5178 7.824 28.8591 8.432C29.2005 9.02933 29.6698 9.49867 30.2671 9.84C30.8645 10.1707 31.5365 10.336 32.2831 10.336ZM54.9886 0.799999V12H52.9086V7.2H47.1166V12H45.0366V0.799999H47.1166V5.424H52.9086V0.799999H54.9886ZM58.1464 0.799999H60.1944V8.752L66.2104 0.799999H68.1464V12H66.0984V4.064L60.0824 12H58.1464V0.799999ZM71.3026 0.799999H73.3506V8.752L79.3666 0.799999H81.3026V12H79.2546V4.064L73.2386 12H71.3026V0.799999ZM11.1839 17.8L6.31988 26.84C5.89321 27.64 5.38121 28.2427 4.78388 28.648C4.19721 29.0427 3.55721 29.24 2.86388 29.24C2.30921 29.24 1.75988 29.1227 1.21588 28.888L1.72788 27.256C2.16521 27.3947 2.52788 27.464 2.81588 27.464C3.48788 27.464 4.04254 27.1173 4.47988 26.424L4.65588 26.152L0.191878 17.8H2.41588L5.72788 24.376L9.13588 17.8H11.1839ZM20.2703 20.456V29H18.2863V22.152H14.0783V29H12.0783V20.456H20.2703ZM27.7049 20.36C28.5369 20.36 29.2782 20.5413 29.9289 20.904C30.5902 21.2667 31.1075 21.7787 31.4809 22.44C31.8542 23.1013 32.0409 23.864 32.0409 24.728C32.0409 25.592 31.8542 26.36 31.4809 27.032C31.1075 27.6933 30.5902 28.2053 29.9289 28.568C29.2782 28.9307 28.5369 29.112 27.7049 29.112C26.5529 29.112 25.6409 28.728 24.9689 27.96V32.104H22.9689V20.456H24.8729V21.576C25.2035 21.1707 25.6089 20.8667 26.0889 20.664C26.5795 20.4613 27.1182 20.36 27.7049 20.36ZM27.4809 27.4C28.2169 27.4 28.8195 27.1547 29.2889 26.664C29.7689 26.1733 30.0089 25.528 30.0089 24.728C30.0089 23.928 29.7689 23.2827 29.2889 22.792C28.8195 22.3013 28.2169 22.056 27.4809 22.056C27.0009 22.056 26.5689 22.168 26.1849 22.392C25.8009 22.6053 25.4969 22.9147 25.2729 23.32C25.0489 23.7253 24.9369 24.1947 24.9369 24.728C24.9369 25.2613 25.0489 25.7307 25.2729 26.136C25.4969 26.5413 25.8009 26.856 26.1849 27.08C26.5689 27.2933 27.0009 27.4 27.4809 27.4ZM37.106 20.36C38.3647 20.36 39.3247 20.664 39.986 21.272C40.658 21.8693 40.994 22.776 40.994 23.992V29H39.106V27.96C38.8607 28.3333 38.5087 28.6213 38.05 28.824C37.602 29.016 37.058 29.112 36.418 29.112C35.778 29.112 35.218 29.0053 34.738 28.792C34.258 28.568 33.8847 28.264 33.618 27.88C33.362 27.4853 33.234 27.0427 33.234 26.552C33.234 25.784 33.5167 25.1707 34.082 24.712C34.658 24.2427 35.5593 24.008 36.786 24.008H38.994V23.88C38.994 23.2827 38.8127 22.824 38.45 22.504C38.098 22.184 37.57 22.024 36.866 22.024C36.386 22.024 35.9113 22.0987 35.442 22.248C34.9833 22.3973 34.594 22.6053 34.274 22.872L33.49 21.416C33.938 21.0747 34.4767 20.8133 35.106 20.632C35.7353 20.4507 36.402 20.36 37.106 20.36ZM36.834 27.656C37.3353 27.656 37.778 27.544 38.162 27.32C38.5567 27.0853 38.834 26.7547 38.994 26.328V25.336H36.93C35.778 25.336 35.202 25.7147 35.202 26.472C35.202 26.8347 35.346 27.1227 35.634 27.336C35.922 27.5493 36.322 27.656 36.834 27.656ZM49.6609 24.552C50.7169 24.872 51.2449 25.5547 51.2449 26.6C51.2449 27.368 50.9569 27.96 50.3809 28.376C49.8049 28.792 48.9515 29 47.8209 29H43.4689V20.456H47.6449C48.6902 20.456 49.5062 20.648 50.0929 21.032C50.6795 21.416 50.9729 21.96 50.9729 22.664C50.9729 23.1013 50.8555 23.48 50.6209 23.8C50.3969 24.12 50.0769 24.3707 49.6609 24.552ZM45.3729 24.024H47.4689C48.5035 24.024 49.0209 23.6667 49.0209 22.952C49.0209 22.2587 48.5035 21.912 47.4689 21.912H45.3729V24.024ZM47.6609 27.544C48.7595 27.544 49.3089 27.1867 49.3089 26.472C49.3089 26.0987 49.1809 25.8213 48.9249 25.64C48.6689 25.448 48.2689 25.352 47.7249 25.352H45.3729V27.544H47.6609ZM61.1191 20.456V29H59.1191V22.152H55.9191L55.8391 23.848C55.7858 24.9787 55.6791 25.928 55.5191 26.696C55.3698 27.4533 55.1085 28.056 54.7351 28.504C54.3725 28.9413 53.8711 29.16 53.2311 29.16C52.9325 29.16 52.5645 29.1013 52.1271 28.984L52.2231 27.304C52.3725 27.336 52.5005 27.352 52.6071 27.352C53.0125 27.352 53.3165 27.192 53.5191 26.872C53.7218 26.5413 53.8498 26.152 53.9031 25.704C53.9671 25.2453 54.0205 24.5947 54.0631 23.752L54.2071 20.456H61.1191ZM71.8126 24.776C71.8126 24.9147 71.802 25.112 71.7806 25.368H65.0766C65.194 25.9973 65.498 26.4987 65.9886 26.872C66.49 27.2347 67.1086 27.416 67.8446 27.416C68.7833 27.416 69.5566 27.1067 70.1646 26.488L71.2366 27.72C70.8526 28.1787 70.3673 28.5253 69.7806 28.76C69.194 28.9947 68.5326 29.112 67.7966 29.112C66.858 29.112 66.0313 28.9253 65.3166 28.552C64.602 28.1787 64.0473 27.6613 63.6526 27C63.2686 26.328 63.0766 25.5707 63.0766 24.728C63.0766 23.896 63.2633 23.1493 63.6366 22.488C64.0206 21.816 64.5486 21.2933 65.2206 20.92C65.8926 20.5467 66.65 20.36 67.4926 20.36C68.3246 20.36 69.066 20.5467 69.7166 20.92C70.378 21.2827 70.89 21.8 71.2526 22.472C71.626 23.1333 71.8126 23.9013 71.8126 24.776ZM67.4926 21.96C66.8526 21.96 66.3086 22.152 65.8606 22.536C65.4233 22.9093 65.1566 23.4107 65.0606 24.04H69.9086C69.8233 23.4213 69.562 22.92 69.1246 22.536C68.6873 22.152 68.1433 21.96 67.4926 21.96ZM74.0001 20.456H76.0001V23.928H80.3041V20.456H82.3041V29H80.3041V25.624H76.0001V29H74.0001V20.456ZM84.9845 20.456H86.9845V26.088L91.7045 20.456H93.5285V29H91.5285V23.368L86.8245 29H84.9845V20.456ZM103.435 20.456V29H101.643V26.424H99.3869L97.6429 29H95.4989L97.5149 26.152C96.8962 25.9387 96.4215 25.6133 96.0909 25.176C95.7709 24.728 95.6109 24.1787 95.6109 23.528C95.6109 22.5467 95.9575 21.7893 96.6509 21.256C97.3442 20.7227 98.2989 20.456 99.5149 20.456H103.435ZM99.5789 22.136C98.2882 22.136 97.6429 22.6213 97.6429 23.592C97.6429 24.552 98.2669 25.032 99.5149 25.032H101.643V22.136H99.5789Z" fill="white"/>
</svg>
