<svg width="168" height="46" viewBox="0 0 168 46" fill="none" xmlns="http://www.w3.org/2000/svg">
<g clip-path="url(#clip0)">
<path d="M7.88788 30.736L10.9689 28.972C13.5363 27.586 14.3066 24.436 12.8945 21.916L11.2256 19.018C10.9689 18.514 11.0972 17.884 11.6107 17.632L24.1914 10.45C26.7589 9.06399 27.5291 5.91399 26.117 3.39399C24.7049 0.873994 21.4955 0.117994 18.9281 1.50399L9.3 7.17399C6.73251 8.55999 5.96227 11.71 7.37439 14.23L9.04325 17.128C9.3 17.632 9.17163 18.262 8.65813 18.514L2.62454 21.79C0.0570555 23.176 -0.71319 26.326 0.698926 28.846C2.23942 31.366 5.44877 32.122 7.88788 30.736Z" fill="#EE2937"/>
<path d="M23.2923 15.364L20.2113 17.128C17.6439 18.514 16.8736 21.664 18.2857 24.184L19.9546 27.082C20.2113 27.586 20.083 28.216 19.5695 28.468L6.9888 35.65C4.42131 37.036 3.65107 40.186 5.06318 42.706C6.4753 45.226 9.68466 45.982 12.2521 44.596L22.0086 39.052C24.5761 37.666 25.3463 34.516 23.9342 31.996L22.2653 29.098C22.0086 28.594 22.137 27.964 22.6505 27.712L28.684 24.31C31.2515 22.924 32.0218 19.774 30.6097 17.254C29.0692 14.734 25.8598 13.978 23.2923 15.364Z" fill="#EE2937"/>
<path d="M49.8665 22.168H57.4405L59.1094 26.578H62.3188L54.8731 7.67804H52.3056L44.8599 26.578H48.0692L49.8665 22.168ZM53.5893 12.34L56.2852 19.27H50.8934L53.5893 12.34Z" fill="#1E3A50"/>
<path d="M87.4799 19.144C88.1217 18.514 88.3785 17.632 88.3785 16.498C88.3785 14.104 86.5812 12.466 83.757 12.466H77.0815V26.452H84.2705C85.6826 26.452 86.9664 26.074 87.7366 25.192C88.5069 24.436 88.892 23.428 88.892 22.168C89.0203 20.908 88.5069 19.9 87.4799 19.144ZM80.0342 15.238H83.8854C85.5543 15.238 85.5542 16.372 85.5542 16.624C85.5542 17.254 85.4259 18.262 83.8854 18.262H80.0342V15.238ZM84.3989 23.68H80.0342V20.656H84.3989C85.5542 20.656 86.1961 21.16 86.1961 22.042C86.0677 22.42 86.1961 23.68 84.3989 23.68Z" fill="#1E3A50"/>
<path d="M97.4931 26.704C99.162 26.704 100.831 26.074 101.986 25.066V26.452H104.939V12.592H101.986V13.978C100.702 12.97 99.162 12.34 97.4931 12.34C95.5675 12.34 93.6419 13.096 92.3581 14.482C90.946 15.868 90.1758 17.632 90.1758 19.648C90.1758 21.664 90.946 23.428 92.3581 24.814C93.6419 26.074 95.4391 26.704 97.4931 26.704ZM97.4931 15.112C99.9322 15.112 101.986 17.002 101.986 19.522C101.986 22.042 100.061 23.932 97.4931 23.932C94.9256 23.932 93 22.042 93 19.522C93 17.002 95.054 15.112 97.4931 15.112Z" fill="#1E3A50"/>
<path d="M122.013 20.53C122.013 17.254 119.317 14.608 115.979 14.608H110.844V10.45H119.574V7.67804H107.892V26.578H115.979C119.317 26.452 122.013 23.806 122.013 20.53ZM110.973 17.506H116.108C117.776 17.506 119.06 18.892 119.06 20.53C119.06 22.168 117.776 23.554 116.108 23.554H110.973V17.506Z" fill="#1E3A50"/>
<path d="M130.742 26.704C132.411 26.704 134.08 26.074 135.235 25.066V26.452H138.188V12.592H135.235V13.978C133.952 12.97 132.411 12.34 130.742 12.34C128.817 12.34 126.891 13.096 125.607 14.482C124.195 15.868 123.425 17.632 123.425 19.648C123.425 21.664 124.195 23.428 125.607 24.814C127.019 26.074 128.817 26.704 130.742 26.704ZM130.871 15.112C133.31 15.112 135.364 17.002 135.364 19.522C135.364 22.042 133.438 23.932 130.871 23.932C128.303 23.932 126.377 22.042 126.377 19.522C126.377 17.002 128.431 15.112 130.871 15.112Z" fill="#1E3A50"/>
<path d="M150.255 17.884V26.452H153.207V12.592H150.897L144.093 21.16V12.592H141.14V26.452H143.579L150.255 17.884Z" fill="#1E3A50"/>
<path d="M151.154 7.67804H143.194V10.576H151.154V7.67804Z" fill="#1E3A50"/>
<path d="M155.39 12.592V15.364H160.011V26.452H162.964V15.364H167.457V12.592H155.39Z" fill="#1E3A50"/>
<path d="M72.2032 26.452H75.6693L69.8924 19.144L75.2841 12.592H71.9464L67.7101 17.884H66.5547V12.592H63.7305V26.452H66.5547V20.53H67.5817L72.2032 26.452Z" fill="#1E3A50"/>
<path d="M47.6836 30.988L44.9878 36.91H46.1432L46.785 35.524H49.7376L50.3795 36.91H51.4065L48.7106 31.114H47.6836V30.988ZM47.0418 34.642L48.1971 32.122L49.3525 34.642H47.0418Z" fill="#EE2937"/>
<path d="M55.5145 34.516C55.7712 34.39 55.8996 34.264 56.028 34.138C56.1564 34.012 56.1564 33.76 56.1564 33.508C56.1564 33.13 56.028 32.878 55.6429 32.626C55.3861 32.374 54.8726 32.374 54.3591 32.374H52.1768V36.784H54.4875C55.1294 36.784 55.5145 36.658 55.8996 36.406C56.1564 36.154 56.4131 35.902 56.4131 35.524C56.2847 35.02 56.028 34.768 55.5145 34.516ZM53.2038 33.13H54.3591C54.8726 33.13 55.1294 33.256 55.1294 33.634C55.1294 34.012 54.8726 34.138 54.3591 34.138H53.2038V33.13ZM54.4875 36.154H53.3321V35.02H54.6159C54.8726 35.02 55.1294 35.02 55.2577 35.146C55.3861 35.272 55.5145 35.398 55.5145 35.524C55.2577 35.902 55.001 36.154 54.4875 36.154Z" fill="#EE2937"/>
<path d="M56.7983 33.256H58.3388V36.91H59.4942V33.256H61.0347V32.374H56.7983V33.256Z" fill="#EE2937"/>
<path d="M64.8859 32.626C64.5008 32.374 64.1157 32.374 63.6022 32.374C63.0887 32.374 62.7036 32.5 62.3185 32.626C61.9333 32.878 61.6766 33.13 61.4198 33.382C61.1631 33.76 61.1631 34.138 61.1631 34.516C61.1631 34.894 61.2915 35.398 61.4198 35.65C61.5482 35.902 61.9333 36.28 62.3185 36.406C62.7036 36.658 63.0887 36.658 63.6022 36.658C64.1157 36.658 64.5008 36.532 64.8859 36.406C65.2711 36.154 65.5278 35.902 65.7846 35.65C66.0413 35.272 66.0413 34.894 66.0413 34.516C66.0413 34.138 65.9129 33.634 65.7846 33.382C65.5278 33.13 65.2711 32.878 64.8859 32.626ZM64.6292 35.65C64.3724 35.902 64.1157 36.028 63.6022 36.028C63.2171 36.028 62.8319 35.902 62.7036 35.65C62.5752 35.398 62.3185 35.02 62.3185 34.642C62.3185 34.264 62.4468 33.886 62.7036 33.634C62.9603 33.382 63.2171 33.256 63.6022 33.256C63.9873 33.256 64.3724 33.382 64.6292 33.634C64.8859 33.886 65.0143 34.264 65.0143 34.642C65.0143 35.02 64.8859 35.398 64.6292 35.65Z" fill="#EE2937"/>
<path d="M71.4331 32.374L69.7642 35.146L68.2237 32.374H67.0684V36.91H68.0954V33.886L69.5075 36.406H70.021L71.5615 33.886V36.91H72.4601V32.374H71.4331Z" fill="#EE2937"/>
<path d="M77.2102 33.004C77.0818 32.752 76.8251 32.626 76.5683 32.626C76.3116 32.5 76.0548 32.5 75.7981 32.5C75.413 32.5 75.0278 32.626 74.6427 32.752C74.2576 32.878 74.0008 33.256 73.8725 33.508C73.6157 33.886 73.6157 34.264 73.6157 34.642C73.6157 35.146 73.7441 35.524 73.8725 35.776C74.1292 36.154 74.386 36.406 74.6427 36.532C75.0278 36.658 75.413 36.784 75.7981 36.784C76.0548 36.784 76.44 36.784 76.6967 36.658C76.9535 36.532 77.2102 36.406 77.3386 36.154V36.784H78.3656V32.374H77.3386V33.004H77.2102ZM76.8251 35.65C76.5683 35.902 76.3116 36.028 75.7981 36.028C75.413 36.028 75.0278 35.902 74.8995 35.65C74.7711 35.398 74.5143 35.02 74.5143 34.642C74.5143 34.264 74.6427 33.886 74.8995 33.634C75.1562 33.382 75.413 33.256 75.7981 33.256C76.1832 33.256 76.5683 33.382 76.8251 33.634C77.0818 33.886 77.2102 34.264 77.2102 34.642C77.2102 35.02 77.0818 35.398 76.8251 35.65Z" fill="#EE2937"/>
<path d="M79.0073 33.256H80.6762V36.91H81.7032V33.256H83.2437V32.374H79.0073V33.256Z" fill="#EE2937"/>
<path d="M85.169 35.398V32.374H84.0137V36.91H85.0407L87.4798 33.886V36.91H88.6352V32.374H87.6082L85.169 35.398Z" fill="#EE2937"/>
<path d="M92.6147 34.516C92.8714 34.39 92.9998 34.264 93.1282 34.138C93.2566 34.012 93.3849 33.76 93.3849 33.508C93.3849 33.256 93.2566 33.004 93.1282 32.878C92.9998 32.752 92.7431 32.5 92.3579 32.5C92.1012 32.374 91.7161 32.374 91.3309 32.374C90.6891 32.374 90.1756 32.5 89.5337 32.752L89.7904 33.508C90.3039 33.256 90.8174 33.13 91.2026 33.13C91.4593 33.13 91.7161 33.13 91.9728 33.256C92.1012 33.382 92.2296 33.508 92.2296 33.634C92.2296 33.76 92.1012 33.886 91.9728 34.012C91.8444 34.138 91.5877 34.138 91.3309 34.138H90.5607V34.894H91.4593C91.7161 34.894 91.9728 34.894 92.1012 35.02C92.2296 35.146 92.3579 35.272 92.3579 35.398C92.3579 35.524 92.2296 35.776 92.1012 35.902C91.9728 36.028 91.5877 36.028 91.3309 36.028C91.0742 36.028 90.8174 36.028 90.5607 35.902C90.3039 35.776 90.0472 35.776 89.7904 35.65L89.5337 36.406C89.7904 36.532 90.0472 36.658 90.4323 36.784C90.8174 36.91 91.0742 36.91 91.4593 36.91C91.8444 36.91 92.2296 36.91 92.6147 36.784C92.9998 36.658 93.2565 36.532 93.3849 36.28C93.5133 36.028 93.6417 35.776 93.6417 35.524C93.6417 35.272 93.5133 35.02 93.3849 34.894C93.1282 34.768 92.8714 34.642 92.6147 34.516Z" fill="#EE2937"/>
<path d="M98.0066 33.004C97.8782 32.752 97.6215 32.626 97.3647 32.626C97.108 32.5 96.8512 32.5 96.5945 32.5C96.2093 32.5 95.8242 32.626 95.4391 32.752C95.054 32.878 94.7972 33.256 94.6689 33.508C94.4121 33.886 94.4121 34.264 94.4121 34.642C94.4121 35.146 94.5405 35.524 94.6689 35.776C94.9256 36.154 95.1824 36.406 95.4391 36.532C95.8242 36.658 96.2093 36.784 96.5945 36.784C96.8512 36.784 97.2363 36.784 97.4931 36.658C97.7498 36.532 98.0066 36.406 98.135 36.154V36.784H99.1619V32.374H98.135V33.004H98.0066ZM97.6215 35.65C97.3647 35.902 97.108 36.028 96.5945 36.028C96.2093 36.028 95.8242 35.902 95.6959 35.65C95.5675 35.398 95.3107 35.02 95.3107 34.642C95.3107 34.264 95.4391 33.886 95.6959 33.634C95.9526 33.382 96.2093 33.256 96.5945 33.256C96.9796 33.256 97.3647 33.382 97.6215 33.634C97.8782 33.886 98.0066 34.264 98.0066 34.642C98.0066 35.02 97.8782 35.398 97.6215 35.65Z" fill="#EE2937"/>
<path d="M104.682 32.374H103.655V36.028H101.473V32.374H100.446V36.91H104.425V37.918H105.452V36.028H104.682V32.374Z" fill="#EE2937"/>
<path d="M107.378 35.398V32.374H106.351V36.91H107.25L109.817 33.886V36.91H110.844V32.374H109.946L107.378 35.398Z" fill="#EE2937"/>
<path d="M112.513 32.878C112.128 33.13 112 33.508 112 34.012C112 34.39 112.128 34.642 112.256 34.894C112.385 35.146 112.641 35.272 113.027 35.398L112 36.91H113.027L113.925 35.524H115.081V36.91H115.979V32.5H113.925C113.412 32.374 112.898 32.5 112.513 32.878ZM115.081 33.256V34.768H113.925C113.283 34.768 112.898 34.516 112.898 34.012C112.898 33.508 113.283 33.256 113.925 33.256H115.081Z" fill="#EE2937"/>
<path d="M123.553 32.626C123.168 32.5 122.783 32.374 122.398 32.374C122.141 32.374 121.756 32.374 121.499 32.5C121.242 32.626 120.985 32.752 120.857 33.004V32.374H119.83V38.422H120.857V36.28C121.242 36.658 121.756 36.91 122.269 36.91C122.654 36.91 123.039 36.784 123.425 36.658C123.81 36.532 124.066 36.154 124.195 35.902C124.452 35.524 124.452 35.146 124.452 34.768C124.452 34.264 124.323 33.886 124.195 33.634C124.195 33.13 123.938 32.878 123.553 32.626ZM123.168 35.65C122.911 35.902 122.654 36.028 122.269 36.028C122.012 36.028 121.756 36.028 121.627 35.902C121.499 35.776 121.242 35.65 121.114 35.398C120.985 35.146 120.985 34.894 120.985 34.642C120.985 34.39 120.985 34.138 121.114 33.886C121.242 33.634 121.371 33.508 121.627 33.382C121.884 33.256 122.012 33.256 122.269 33.256C122.654 33.256 123.039 33.382 123.168 33.634C123.425 33.886 123.553 34.264 123.553 34.642C123.553 35.02 123.425 35.398 123.168 35.65Z" fill="#EE2937"/>
<path d="M128.816 32.626C128.431 32.374 128.046 32.374 127.661 32.374C127.276 32.374 126.762 32.5 126.506 32.626C126.12 32.878 125.864 33.13 125.735 33.382C125.479 33.76 125.479 34.138 125.479 34.516C125.479 34.894 125.607 35.398 125.735 35.65C125.992 36.028 126.249 36.28 126.634 36.406C127.019 36.658 127.404 36.658 127.918 36.658C128.303 36.658 128.688 36.658 128.945 36.532C129.201 36.406 129.458 36.28 129.715 36.028L129.201 35.398C128.816 35.776 128.431 35.902 127.918 35.902C127.533 35.902 127.147 35.776 126.891 35.65C126.634 35.398 126.506 35.146 126.377 34.894H129.972C129.972 34.768 129.972 34.642 129.972 34.642C129.972 34.138 129.843 33.76 129.715 33.382C129.458 33.13 129.201 32.878 128.816 32.626ZM126.377 34.264C126.377 33.886 126.634 33.634 126.762 33.508C127.019 33.256 127.276 33.256 127.661 33.256C128.046 33.256 128.303 33.382 128.56 33.508C128.816 33.634 128.945 34.012 128.945 34.264H126.377Z" fill="#EE2937"/>
<path d="M133.181 33.256C133.438 33.256 133.566 33.256 133.823 33.382C134.08 33.508 134.208 33.634 134.337 33.886L135.107 33.382C134.979 33.004 134.722 32.752 134.337 32.626C133.952 32.5 133.566 32.374 133.181 32.374C132.668 32.374 132.283 32.5 131.898 32.626C131.512 32.878 131.256 33.13 130.999 33.382C130.742 33.76 130.742 34.138 130.742 34.516C130.742 34.894 130.871 35.398 130.999 35.65C131.127 35.902 131.512 36.28 131.898 36.406C132.283 36.658 132.668 36.658 133.181 36.658C133.566 36.658 133.952 36.532 134.337 36.406C134.722 36.28 134.979 36.028 135.107 35.65L134.337 35.146C134.208 35.398 134.08 35.524 133.823 35.65C133.566 35.776 133.438 35.776 133.181 35.776C132.796 35.776 132.411 35.65 132.154 35.398C131.898 35.146 131.769 34.768 131.769 34.39C131.769 34.012 131.898 33.634 132.154 33.382C132.411 33.382 132.796 33.256 133.181 33.256Z" fill="#EE2937"/>
<path d="M135.363 33.256H136.904V36.91H137.931V33.256H139.6V32.374H135.363V33.256Z" fill="#EE2937"/>
<path d="M143.323 32.626C142.938 32.374 142.553 32.374 142.039 32.374C141.526 32.374 141.141 32.5 140.755 32.626C140.37 32.878 140.114 33.13 139.857 33.382C139.6 33.76 139.6 34.138 139.6 34.516C139.6 34.894 139.728 35.398 139.857 35.65C140.114 36.028 140.37 36.28 140.755 36.406C141.141 36.658 141.526 36.658 142.039 36.658C142.553 36.658 142.938 36.532 143.323 36.406C143.708 36.154 143.965 35.902 144.222 35.65C144.478 35.272 144.478 34.894 144.478 34.516C144.478 34.138 144.35 33.634 144.222 33.382C144.093 33.13 143.708 32.878 143.323 32.626ZM143.066 35.65C142.809 35.902 142.553 36.028 142.039 36.028C141.654 36.028 141.269 35.902 141.141 35.65C140.884 35.398 140.755 35.02 140.755 34.642C140.755 34.264 140.884 33.886 141.141 33.634C141.397 33.382 141.654 33.256 142.039 33.256C142.424 33.256 142.809 33.382 143.066 33.634C143.323 33.886 143.451 34.264 143.451 34.642C143.451 35.02 143.323 35.398 143.066 35.65Z" fill="#EE2937"/>
<path d="M149.228 32.626C148.843 32.5 148.457 32.374 148.072 32.374C147.816 32.374 147.43 32.374 147.174 32.5C146.917 32.626 146.66 32.752 146.532 33.004V32.374H145.505V38.422H146.532V36.28C146.917 36.658 147.43 36.91 147.944 36.91C148.329 36.91 148.714 36.784 149.099 36.658C149.484 36.532 149.741 36.154 149.87 35.902C150.126 35.524 150.126 35.146 150.126 34.768C150.126 34.264 149.998 33.886 149.87 33.634C149.87 33.13 149.613 32.878 149.228 32.626ZM148.971 35.65C148.714 35.902 148.457 36.028 148.072 36.028C147.816 36.028 147.559 36.028 147.43 35.902C147.174 35.776 147.045 35.65 146.917 35.398C146.789 35.146 146.789 34.894 146.789 34.642C146.789 34.39 146.789 34.138 146.917 33.886C147.045 33.634 147.174 33.508 147.43 33.382C147.687 33.256 147.816 33.256 148.072 33.256C148.457 33.256 148.843 33.382 148.971 33.634C149.228 33.886 149.356 34.264 149.356 34.642C149.356 35.02 149.228 35.398 148.971 35.65Z" fill="#EE2937"/>
<path d="M154.748 33.004C154.619 32.752 154.363 32.626 154.106 32.626C153.849 32.5 153.592 32.5 153.336 32.5C152.951 32.5 152.565 32.626 152.18 32.752C151.795 32.878 151.538 33.256 151.41 33.508C151.153 33.886 151.153 34.264 151.153 34.642C151.153 35.146 151.282 35.524 151.41 35.776C151.667 36.154 151.924 36.406 152.18 36.532C152.565 36.658 152.951 36.784 153.336 36.784C153.592 36.784 153.978 36.784 154.234 36.658C154.491 36.532 154.748 36.406 154.876 36.154V36.784H155.903V32.374H154.876V33.004H154.748ZM154.363 35.65C154.106 35.902 153.849 36.028 153.336 36.028C152.951 36.028 152.565 35.902 152.437 35.65C152.309 35.398 152.052 35.02 152.052 34.642C152.052 34.264 152.18 33.886 152.437 33.634C152.694 33.382 152.951 33.256 153.336 33.256C153.721 33.256 154.106 33.382 154.363 33.634C154.619 33.886 154.748 34.264 154.748 34.642C154.748 35.02 154.619 35.398 154.363 35.65Z" fill="#EE2937"/>
<path d="M160.525 34.264H158.342V32.374H157.187V36.91H158.342V35.146H160.525V36.91H161.68V32.374H160.525V34.264Z" fill="#EE2937"/>
<path d="M166.43 33.004C166.302 32.752 166.045 32.626 165.788 32.626C165.531 32.5 165.275 32.5 165.018 32.5C164.633 32.5 164.248 32.626 163.862 32.752C163.477 32.878 163.221 33.256 163.092 33.508C162.835 33.886 162.835 34.264 162.835 34.642C162.835 35.146 162.964 35.524 163.092 35.776C163.349 36.154 163.606 36.406 163.862 36.532C164.248 36.658 164.633 36.784 165.018 36.784C165.275 36.784 165.66 36.784 165.916 36.658C166.173 36.532 166.43 36.406 166.558 36.154V36.784H167.585V32.374H166.558V33.004H166.43ZM166.045 35.65C165.788 35.902 165.531 36.028 165.018 36.028C164.633 36.028 164.248 35.902 164.119 35.65C163.862 35.398 163.734 35.02 163.734 34.642C163.734 34.264 163.862 33.886 164.119 33.634C164.376 33.382 164.633 33.256 165.018 33.256C165.403 33.256 165.788 33.382 166.045 33.634C166.302 33.886 166.43 34.264 166.43 34.642C166.43 35.02 166.302 35.398 166.045 35.65Z" fill="#EE2937"/>
</g>
<defs>
<clipPath id="clip0">
<rect width="168" height="46" fill="white"/>
</clipPath>
</defs>
</svg>
