<svg width="241" height="19" viewBox="0 0 241 19" fill="none" xmlns="http://www.w3.org/2000/svg">
<path d="M12.604 1.7V15H10.571L3.237 5.994V15H0.786V1.7H2.819L10.153 10.706V1.7H12.604ZM22.3238 15.19C20.9812 15.19 19.7652 14.8987 18.6758 14.316C17.5992 13.7207 16.7505 12.9037 16.1298 11.865C15.5218 10.8263 15.2178 9.65467 15.2178 8.35C15.2178 7.04533 15.5282 5.87367 16.1488 4.835C16.7695 3.79633 17.6182 2.98567 18.6948 2.403C19.7842 1.80767 21.0002 1.51 22.3428 1.51C23.4322 1.51 24.4265 1.7 25.3258 2.08C26.2252 2.46 26.9852 3.011 27.6058 3.733L26.0098 5.234C25.0472 4.19533 23.8628 3.676 22.4568 3.676C21.5448 3.676 20.7278 3.87867 20.0058 4.284C19.2838 4.67667 18.7202 5.22767 18.3148 5.937C17.9095 6.64633 17.7068 7.45067 17.7068 8.35C17.7068 9.24933 17.9095 10.0537 18.3148 10.763C18.7202 11.4723 19.2838 12.0297 20.0058 12.435C20.7278 12.8277 21.5448 13.024 22.4568 13.024C23.8628 13.024 25.0472 12.4983 26.0098 11.447L27.6058 12.967C26.9852 13.689 26.2188 14.24 25.3068 14.62C24.4075 15 23.4132 15.19 22.3238 15.19ZM35.8502 15.19C34.5075 15.19 33.2915 14.8987 32.2022 14.316C31.1255 13.7207 30.2769 12.9037 29.6562 11.865C29.0482 10.8263 28.7442 9.65467 28.7442 8.35C28.7442 7.04533 29.0545 5.87367 29.6752 4.835C30.2959 3.79633 31.1445 2.98567 32.2212 2.403C33.3105 1.80767 34.5265 1.51 35.8692 1.51C36.9585 1.51 37.9529 1.7 38.8522 2.08C39.7515 2.46 40.5115 3.011 41.1322 3.733L39.5362 5.234C38.5735 4.19533 37.3892 3.676 35.9832 3.676C35.0712 3.676 34.2542 3.87867 33.5322 4.284C32.8102 4.67667 32.2465 5.22767 31.8412 5.937C31.4359 6.64633 31.2332 7.45067 31.2332 8.35C31.2332 9.24933 31.4359 10.0537 31.8412 10.763C32.2465 11.4723 32.8102 12.0297 33.5322 12.435C34.2542 12.8277 35.0712 13.024 35.9832 13.024C37.3892 13.024 38.5735 12.4983 39.5362 11.447L41.1322 12.967C40.5115 13.689 39.7452 14.24 38.8332 14.62C37.9339 15 36.9395 15.19 35.8502 15.19ZM60.9669 15L60.9479 6.184L56.5779 13.48H55.4759L51.1059 6.298V15H48.7499V1.7H50.7829L56.0649 10.516L61.2519 1.7H63.2849L63.3039 15H60.9669ZM66.6684 4.854H69.0434V15H66.6684V4.854ZM67.8654 3.182C67.4347 3.182 67.0737 3.049 66.7824 2.783C66.491 2.50433 66.3454 2.16233 66.3454 1.757C66.3454 1.35167 66.491 1.016 66.7824 0.749999C67.0737 0.471333 67.4347 0.332 67.8654 0.332C68.296 0.332 68.657 0.465 68.9484 0.730999C69.2397 0.984333 69.3854 1.30733 69.3854 1.7C69.3854 2.118 69.2397 2.47267 68.9484 2.764C68.6697 3.04267 68.3087 3.182 67.8654 3.182ZM82.0975 0.901999V15H79.8175V13.689C79.4249 14.1703 78.9372 14.5313 78.3545 14.772C77.7845 15.0127 77.1512 15.133 76.4545 15.133C75.4792 15.133 74.5989 14.9177 73.8135 14.487C73.0409 14.0563 72.4329 13.4483 71.9895 12.663C71.5462 11.865 71.3245 10.953 71.3245 9.927C71.3245 8.901 71.5462 7.99533 71.9895 7.21C72.4329 6.42467 73.0409 5.81667 73.8135 5.386C74.5989 4.95533 75.4792 4.74 76.4545 4.74C77.1259 4.74 77.7402 4.854 78.2975 5.082C78.8549 5.31 79.3299 5.652 79.7225 6.108V0.901999H82.0975ZM76.7395 13.1C77.3095 13.1 77.8225 12.9733 78.2785 12.72C78.7345 12.454 79.0955 12.0803 79.3615 11.599C79.6275 11.1177 79.7605 10.5603 79.7605 9.927C79.7605 9.29367 79.6275 8.73633 79.3615 8.255C79.0955 7.77367 78.7345 7.40633 78.2785 7.153C77.8225 6.887 77.3095 6.754 76.7395 6.754C76.1695 6.754 75.6565 6.887 75.2005 7.153C74.7445 7.40633 74.3835 7.77367 74.1175 8.255C73.8515 8.73633 73.7185 9.29367 73.7185 9.927C73.7185 10.5603 73.8515 11.1177 74.1175 11.599C74.3835 12.0803 74.7445 12.454 75.2005 12.72C75.6565 12.9733 76.1695 13.1 76.7395 13.1ZM95.1415 0.901999V15H92.8615V13.689C92.4688 14.1703 91.9812 14.5313 91.3985 14.772C90.8285 15.0127 90.1952 15.133 89.4985 15.133C88.5232 15.133 87.6428 14.9177 86.8575 14.487C86.0848 14.0563 85.4768 13.4483 85.0335 12.663C84.5902 11.865 84.3685 10.953 84.3685 9.927C84.3685 8.901 84.5902 7.99533 85.0335 7.21C85.4768 6.42467 86.0848 5.81667 86.8575 5.386C87.6428 4.95533 88.5232 4.74 89.4985 4.74C90.1698 4.74 90.7842 4.854 91.3415 5.082C91.8988 5.31 92.3738 5.652 92.7665 6.108V0.901999H95.1415ZM89.7835 13.1C90.3535 13.1 90.8665 12.9733 91.3225 12.72C91.7785 12.454 92.1395 12.0803 92.4055 11.599C92.6715 11.1177 92.8045 10.5603 92.8045 9.927C92.8045 9.29367 92.6715 8.73633 92.4055 8.255C92.1395 7.77367 91.7785 7.40633 91.3225 7.153C90.8665 6.887 90.3535 6.754 89.7835 6.754C89.2135 6.754 88.7005 6.887 88.2445 7.153C87.7885 7.40633 87.4275 7.77367 87.1615 8.255C86.8955 8.73633 86.7625 9.29367 86.7625 9.927C86.7625 10.5603 86.8955 11.1177 87.1615 11.599C87.4275 12.0803 87.7885 12.454 88.2445 12.72C88.7005 12.9733 89.2135 13.1 89.7835 13.1ZM98.2484 0.901999H100.623V15H98.2484V0.901999ZM113.279 9.984C113.279 10.1487 113.266 10.383 113.241 10.687H105.28C105.419 11.4343 105.78 12.0297 106.363 12.473C106.958 12.9037 107.693 13.119 108.567 13.119C109.681 13.119 110.6 12.7517 111.322 12.017L112.595 13.48C112.139 14.0247 111.562 14.4363 110.866 14.715C110.169 14.9937 109.384 15.133 108.51 15.133C107.395 15.133 106.413 14.9113 105.565 14.468C104.716 14.0247 104.057 13.4103 103.589 12.625C103.133 11.827 102.905 10.9277 102.905 9.927C102.905 8.939 103.126 8.05233 103.57 7.267C104.026 6.469 104.653 5.84833 105.451 5.405C106.249 4.96167 107.148 4.74 108.149 4.74C109.137 4.74 110.017 4.96167 110.79 5.405C111.575 5.83567 112.183 6.45 112.614 7.248C113.057 8.03333 113.279 8.94533 113.279 9.984ZM108.149 6.64C107.389 6.64 106.743 6.868 106.211 7.324C105.691 7.76733 105.375 8.36267 105.261 9.11H111.018C110.916 8.37533 110.606 7.78 110.087 7.324C109.567 6.868 108.921 6.64 108.149 6.64ZM131.014 12.929V15H121.039V1.7H130.748V3.771H123.509V7.229H129.931V9.262H123.509V12.929H131.014ZM137.323 4.74C138.817 4.74 139.957 5.101 140.743 5.823C141.541 6.53233 141.94 7.609 141.94 9.053V15H139.698V13.765C139.406 14.2083 138.988 14.5503 138.444 14.791C137.912 15.019 137.266 15.133 136.506 15.133C135.746 15.133 135.081 15.0063 134.511 14.753C133.941 14.487 133.497 14.126 133.181 13.67C132.877 13.2013 132.725 12.6757 132.725 12.093C132.725 11.181 133.06 10.4527 133.732 9.908C134.416 9.35067 135.486 9.072 136.943 9.072H139.565V8.92C139.565 8.21067 139.349 7.666 138.919 7.286C138.501 6.906 137.874 6.716 137.038 6.716C136.468 6.716 135.904 6.80467 135.347 6.982C134.802 7.15933 134.34 7.40633 133.96 7.723L133.029 5.994C133.561 5.58867 134.2 5.27833 134.948 5.063C135.695 4.84767 136.487 4.74 137.323 4.74ZM137 13.404C137.595 13.404 138.121 13.271 138.577 13.005C139.045 12.7263 139.375 12.3337 139.565 11.827V10.649H137.114C135.746 10.649 135.062 11.0987 135.062 11.998C135.062 12.4287 135.233 12.7707 135.575 13.024C135.917 13.2773 136.392 13.404 137 13.404ZM148.123 15.133C147.299 15.133 146.495 15.0253 145.71 14.81C144.924 14.5947 144.297 14.3223 143.829 13.993L144.741 12.188C145.197 12.492 145.741 12.739 146.375 12.929C147.021 13.1063 147.654 13.195 148.275 13.195C149.693 13.195 150.403 12.8213 150.403 12.074C150.403 11.7193 150.219 11.4723 149.852 11.333C149.497 11.1937 148.921 11.0607 148.123 10.934C147.287 10.8073 146.603 10.6617 146.071 10.497C145.551 10.3323 145.095 10.0473 144.703 9.642C144.323 9.224 144.133 8.64767 144.133 7.913C144.133 6.95033 144.532 6.184 145.33 5.614C146.14 5.03133 147.23 4.74 148.598 4.74C149.294 4.74 149.991 4.82233 150.688 4.987C151.384 5.139 151.954 5.348 152.398 5.614L151.486 7.419C150.624 6.91233 149.655 6.659 148.579 6.659C147.882 6.659 147.35 6.76667 146.983 6.982C146.628 7.18467 146.451 7.457 146.451 7.799C146.451 8.179 146.641 8.45133 147.021 8.616C147.413 8.768 148.015 8.91367 148.826 9.053C149.636 9.17967 150.301 9.32533 150.821 9.49C151.34 9.65467 151.783 9.93333 152.151 10.326C152.531 10.7187 152.721 11.276 152.721 11.998C152.721 12.948 152.309 13.708 151.486 14.278C150.662 14.848 149.541 15.133 148.123 15.133ZM160.865 14.449C160.586 14.677 160.244 14.848 159.839 14.962C159.446 15.076 159.028 15.133 158.585 15.133C157.47 15.133 156.609 14.8417 156.001 14.259C155.393 13.6763 155.089 12.8277 155.089 11.713V6.83H153.417V4.93H155.089V2.612H157.464V4.93H160.181V6.83H157.464V11.656C157.464 12.15 157.584 12.53 157.825 12.796C158.066 13.0493 158.414 13.176 158.87 13.176C159.402 13.176 159.845 13.0367 160.2 12.758L160.865 14.449ZM170.996 3.79H166.588V1.7H177.874V3.79H173.466V15H170.996V3.79ZM181.519 6.336C182.203 5.272 183.407 4.74 185.129 4.74V7.001C184.927 6.963 184.743 6.944 184.578 6.944C183.654 6.944 182.932 7.21633 182.412 7.761C181.893 8.293 181.633 9.06567 181.633 10.079V15H179.258V4.854H181.519V6.336ZM190.964 4.74C192.459 4.74 193.599 5.101 194.384 5.823C195.182 6.53233 195.581 7.609 195.581 9.053V15H193.339V13.765C193.048 14.2083 192.63 14.5503 192.085 14.791C191.553 15.019 190.907 15.133 190.147 15.133C189.387 15.133 188.722 15.0063 188.152 14.753C187.582 14.487 187.139 14.126 186.822 13.67C186.518 13.2013 186.366 12.6757 186.366 12.093C186.366 11.181 186.702 10.4527 187.373 9.908C188.057 9.35067 189.128 9.072 190.584 9.072H193.206V8.92C193.206 8.21067 192.991 7.666 192.56 7.286C192.142 6.906 191.515 6.716 190.679 6.716C190.109 6.716 189.546 6.80467 188.988 6.982C188.444 7.15933 187.981 7.40633 187.601 7.723L186.67 5.994C187.202 5.58867 187.842 5.27833 188.589 5.063C189.337 4.84767 190.128 4.74 190.964 4.74ZM190.641 13.404C191.237 13.404 191.762 13.271 192.218 13.005C192.687 12.7263 193.016 12.3337 193.206 11.827V10.649H190.755C189.387 10.649 188.703 11.0987 188.703 11.998C188.703 12.4287 188.874 12.7707 189.216 13.024C189.558 13.2773 190.033 13.404 190.641 13.404ZM208.659 0.901999V15H206.379V13.689C205.986 14.1703 205.499 14.5313 204.916 14.772C204.346 15.0127 203.713 15.133 203.016 15.133C202.041 15.133 201.16 14.9177 200.375 14.487C199.602 14.0563 198.994 13.4483 198.551 12.663C198.108 11.865 197.886 10.953 197.886 9.927C197.886 8.901 198.108 7.99533 198.551 7.21C198.994 6.42467 199.602 5.81667 200.375 5.386C201.16 4.95533 202.041 4.74 203.016 4.74C203.687 4.74 204.302 4.854 204.859 5.082C205.416 5.31 205.891 5.652 206.284 6.108V0.901999H208.659ZM203.301 13.1C203.871 13.1 204.384 12.9733 204.84 12.72C205.296 12.454 205.657 12.0803 205.923 11.599C206.189 11.1177 206.322 10.5603 206.322 9.927C206.322 9.29367 206.189 8.73633 205.923 8.255C205.657 7.77367 205.296 7.40633 204.84 7.153C204.384 6.887 203.871 6.754 203.301 6.754C202.731 6.754 202.218 6.887 201.762 7.153C201.306 7.40633 200.945 7.77367 200.679 8.255C200.413 8.73633 200.28 9.29367 200.28 9.927C200.28 10.5603 200.413 11.1177 200.679 11.599C200.945 12.0803 201.306 12.454 201.762 12.72C202.218 12.9733 202.731 13.1 203.301 13.1ZM211.766 4.854H214.141V15H211.766V4.854ZM212.963 3.182C212.532 3.182 212.171 3.049 211.88 2.783C211.589 2.50433 211.443 2.16233 211.443 1.757C211.443 1.35167 211.589 1.016 211.88 0.749999C212.171 0.471333 212.532 0.332 212.963 0.332C213.394 0.332 213.755 0.465 214.046 0.730999C214.337 0.984333 214.483 1.30733 214.483 1.7C214.483 2.118 214.337 2.47267 214.046 2.764C213.767 3.04267 213.406 3.182 212.963 3.182ZM223.015 4.74C224.295 4.74 225.321 5.11367 226.093 5.861C226.866 6.60833 227.252 7.71667 227.252 9.186V15H224.877V9.49C224.877 8.60333 224.668 7.93833 224.25 7.495C223.832 7.039 223.237 6.811 222.464 6.811C221.59 6.811 220.9 7.077 220.393 7.609C219.887 8.12833 219.633 8.882 219.633 9.87V15H217.258V4.854H219.519V6.165C219.912 5.69633 220.406 5.34167 221.001 5.101C221.597 4.86033 222.268 4.74 223.015 4.74ZM240.428 4.854V13.461C240.428 17.033 238.604 18.819 234.956 18.819C233.98 18.819 233.056 18.6923 232.182 18.439C231.308 18.1983 230.586 17.8437 230.016 17.375L231.08 15.589C231.523 15.9563 232.08 16.2477 232.752 16.463C233.436 16.691 234.126 16.805 234.823 16.805C235.937 16.805 236.754 16.5517 237.274 16.045C237.793 15.5383 238.053 14.7657 238.053 13.727V13.195C237.647 13.6383 237.153 13.974 236.571 14.202C235.988 14.43 235.348 14.544 234.652 14.544C233.689 14.544 232.815 14.3413 232.03 13.936C231.257 13.518 230.643 12.9353 230.187 12.188C229.743 11.4407 229.522 10.5857 229.522 9.623C229.522 8.66033 229.743 7.81167 230.187 7.077C230.643 6.32967 231.257 5.75333 232.03 5.348C232.815 4.94267 233.689 4.74 234.652 4.74C235.386 4.74 236.051 4.86033 236.647 5.101C237.255 5.34167 237.761 5.709 238.167 6.203V4.854H240.428ZM235.013 12.53C235.912 12.53 236.647 12.264 237.217 11.732C237.799 11.1873 238.091 10.4843 238.091 9.623C238.091 8.77433 237.799 8.084 237.217 7.552C236.647 7.02 235.912 6.754 235.013 6.754C234.101 6.754 233.353 7.02 232.771 7.552C232.201 8.084 231.916 8.77433 231.916 9.623C231.916 10.4843 232.201 11.1873 232.771 11.732C233.353 12.264 234.101 12.53 235.013 12.53Z" fill="white"/>
</svg>
