<svg width="191" height="47" viewBox="0 0 191 47" fill="none" xmlns="http://www.w3.org/2000/svg">
<path d="M94.9475 12.8363C94.8973 13.1859 94.8973 14.3847 94.8973 14.7842C94.8471 15.933 94.7969 17.3315 95.0982 18.5302C95.6505 20.8278 98.4623 21.7268 100.42 20.7279C101.425 20.1785 102.328 19.3294 102.529 18.3305C102.831 17.2816 101.676 17.2316 101.274 18.0807C100.822 18.9298 99.9184 19.8289 98.9142 19.679C98.5125 19.6291 98.2112 19.4293 98.0104 19.1296C97.6589 18.6301 97.6589 17.9309 97.7091 17.2816C97.7593 16.2826 97.7593 14.7842 97.8095 13.8852V12.8363H94.9475Z" fill="white"/>
<path d="M55.0808 29.4187H60.0014C60.2525 29.4187 60.4031 29.3188 60.4031 29.0191V28.9192C60.4031 28.4198 60.0014 28.4697 59.6499 28.4697C59.3487 28.4198 59.1478 28.17 59.1478 27.7205V9.88947V8.79064V8.29117C59.1478 7.99149 58.947 7.8916 58.7461 7.8916C57.6415 7.84165 55.6833 7.69181 54.7293 8.09139C54.6289 8.14133 54.5787 8.19128 54.5285 8.24123C54.3276 8.39107 54.2774 8.89054 54.3778 9.14027C54.4783 9.29011 54.6791 9.29011 54.88 9.19022C55.7837 8.79064 56.4365 8.99043 56.4365 9.73963V27.7205C56.4365 28.17 56.085 28.4198 55.7335 28.5196C55.5327 28.5696 55.2816 28.6195 55.0808 28.6195C54.8297 28.6695 54.7293 28.7194 54.7293 29.0191V29.119C54.6791 29.3687 54.8799 29.4187 55.0808 29.4187Z" fill="white"/>
<path d="M61.7087 18.6302C62.261 19.729 63.3657 19.9288 64.5205 19.6292C66.6795 19.0797 67.8846 16.7322 67.9348 14.3847C67.985 11.338 66.3281 9.48994 63.7171 9.48994C61.9096 9.48994 60.2526 10.4889 59.2484 11.9373C59.148 12.0872 59.0476 12.3869 58.8467 12.5367C58.5957 12.8364 57.9932 12.7864 57.9932 12.3369C57.9932 12.237 58.0434 12.0872 58.0936 11.9373C58.2442 11.3879 58.5455 10.9384 58.9472 10.5388C60.2526 9.19026 62.1104 7.79175 63.918 7.79175C65.3741 7.79175 66.9306 7.99154 68.1356 8.69079C70.2445 9.93946 71.098 12.4368 70.9474 14.8842C70.7466 18.2306 68.7884 20.4283 66.0268 21.1276C64.3197 21.627 61.8594 21.3273 60.7045 19.779C60.4535 19.4793 60.1522 18.9299 60.102 18.4304C60.0016 17.5813 60.8049 17.1318 61.3572 17.881C61.4577 18.1307 61.6083 18.4304 61.7087 18.6302Z" fill="white"/>
<path d="M80.3868 12.8363C80.5375 12.1371 80.8889 11.238 81.3408 10.7385C81.9434 10.0892 82.8973 9.73961 83.5501 9.78956C84.4037 9.83951 84.956 10.7385 84.9058 12.4867C84.8053 14.7842 85.0564 18.1307 88.1192 18.0807C90.8808 18.0308 93.1905 16.3825 94.747 14.1849C95.5001 13.136 96.0524 12.0372 96.2533 11.238C96.5043 10.1891 95.4499 10.289 95.0984 11.1881C94.5461 12.7864 90.228 18.0308 88.3703 15.3836C88.1694 15.1339 88.069 14.8342 87.9686 14.5345C87.6673 13.3857 87.8682 11.9872 87.818 10.7385C87.6673 8.89052 86.5125 7.69179 84.5041 7.74174C83.6505 7.79168 82.7969 8.14131 82.0438 8.69073C80.6881 9.68967 79.5835 11.1881 79.232 12.237C78.7299 13.7853 79.9349 14.8342 80.3868 12.8363Z" fill="white"/>
<path d="M97.8094 12.9862V9.63972V8.89052V8.54089C97.8094 7.84163 97.8094 7.64184 97.0563 7.64184C95.9015 7.5919 94.2445 7.492 93.3909 7.89158C93.2905 7.94153 93.2403 7.99147 93.1901 8.04142C92.9893 8.19126 92.939 8.69073 93.0395 8.94046C93.1399 9.0903 93.2905 9.0903 93.5416 8.99041C94.4454 8.59083 95.0981 8.79062 95.0981 9.53983V13.0361H97.8094V12.9862Z" fill="white"/>
<path d="M124.371 12.8363C124.371 13.1859 124.321 14.3847 124.321 14.7842C124.27 15.933 124.22 17.3315 124.522 18.5302C125.074 20.8278 127.886 21.7268 129.844 20.7279C130.848 20.1785 131.702 19.3294 131.953 18.3305C132.204 17.2816 131.099 17.2316 130.647 18.0807C130.246 18.9298 129.292 19.8289 128.338 19.679C127.936 19.6291 127.635 19.4293 127.434 19.1296C127.082 18.6301 127.082 17.9309 127.132 17.2816C127.183 16.2826 127.183 14.7842 127.233 13.8852V12.8363H124.371Z" fill="white"/>
<path d="M111.618 10.4889C112.17 9.34008 113.275 9.34008 113.827 9.93944C114.279 10.389 114.279 11.2381 114.329 11.8374C114.48 13.7853 114.128 15.6833 114.329 17.6313C114.429 18.4804 114.63 19.3295 114.982 19.9788C115.434 20.8778 116.237 21.4772 117.593 21.4772C120.354 21.4272 122.614 19.779 124.17 17.6313C124.923 16.5324 125.476 15.4336 125.677 14.6344C125.978 13.5856 124.873 13.6855 124.572 14.5845C124.02 16.1828 119.701 21.4272 117.844 18.78C117.643 18.5303 117.542 18.2306 117.442 17.9309C117.291 17.3316 117.291 16.6323 117.291 15.9331C117.291 15.3337 117.342 11.3879 117.291 10.7885C117.141 8.9405 115.936 7.74178 113.978 7.79173C112.471 7.84167 111.166 8.79066 110.513 10.1392C110.111 11.1382 111.065 11.5877 111.618 10.4889Z" fill="white"/>
<path d="M127.283 13.6355V10.4888V9.73962V9.43993C127.233 8.74068 127.283 8.54089 126.53 8.54089C125.375 8.49094 123.568 8.39105 122.714 8.74068C122.614 8.79063 122.563 8.84057 122.513 8.89052C122.312 9.09031 122.212 9.53983 122.363 9.78956C122.463 9.9394 122.614 9.9394 122.865 9.83951C123.768 9.43993 124.421 9.63972 124.421 10.3889V13.6854H127.283V13.6355Z" fill="white"/>
<path d="M156.957 11.9373V10.4888V9.73962V9.43993C156.957 8.74068 156.957 8.54089 156.204 8.54089C155.049 8.49094 153.392 8.39105 152.539 8.74068C152.438 8.79063 152.388 8.84057 152.338 8.89052C152.137 9.09031 152.087 9.53983 152.187 9.78956C152.288 9.9394 152.438 9.9394 152.69 9.83951C153.593 9.43994 154.246 9.63972 154.246 10.3889V12.8863H154.095C154.045 13.2359 154.045 14.4346 154.045 14.8342C153.995 15.983 153.945 17.3815 154.246 18.5802C154.798 20.8778 157.61 21.7768 159.568 20.7779C160.573 20.2285 161.476 19.3794 161.677 18.3804C161.978 17.3315 160.824 17.2816 160.422 18.1307C159.97 18.9798 159.066 19.8788 158.062 19.729C157.66 19.679 157.359 19.4793 157.158 19.1796C156.807 18.6801 156.807 17.9808 156.857 17.3315C156.907 16.5324 156.907 15.5335 156.957 14.6844C156.957 13.7354 156.957 12.7864 156.957 11.9373Z" fill="white"/>
<path d="M142.648 20.9777H147.568C147.819 20.9777 147.97 20.8778 147.97 20.5781V20.4782C147.97 19.9788 147.518 20.0287 147.167 20.0287C146.865 19.9788 146.664 19.729 146.664 19.2795V17.0818C146.815 17.1318 146.966 17.1318 147.116 17.1318C149.878 17.0818 152.539 15.5335 154.096 13.3858C154.849 12.3369 155.05 12.4368 155.25 11.6376C155.552 10.5388 154.598 10.339 154.246 11.2381C153.694 12.8364 148.974 16.4825 147.418 14.5346C147.217 14.2848 147.116 13.9851 147.016 13.6355V13.5856C146.915 13.2359 146.915 12.9862 146.915 12.6865C146.915 11.7875 146.915 11.0383 146.865 10.7885C146.715 8.9405 145.66 7.74178 143.702 7.79173C142.196 7.84167 140.94 8.79066 140.288 10.1392C139.786 11.1382 140.79 11.5877 141.292 10.4389C141.894 9.29013 142.949 9.29013 143.501 9.88949C143.953 10.339 143.953 11.1881 143.953 11.7875C144.003 12.2869 144.003 12.6865 144.003 13.186V19.2795C144.003 19.729 143.602 19.9788 143.25 20.0787C143.049 20.1286 142.798 20.1785 142.597 20.1785C142.346 20.2285 142.296 20.2784 142.296 20.5781V20.6281V20.728C142.296 20.9277 142.447 20.9777 142.648 20.9777Z" fill="white"/>
<path d="M183.318 12.8363C183.267 13.1859 183.267 14.3847 183.267 14.7842C183.217 15.933 183.167 17.3315 183.468 18.5302C184.021 20.8278 186.832 21.7268 188.791 20.7279C189.795 20.1785 190.648 19.3294 190.899 18.3305C190.95 18.2306 190.95 18.1307 190.95 18.0308V17.9808C190.95 17.2316 189.996 17.3315 189.644 18.0807C189.243 18.9298 188.288 19.8289 187.335 19.679C186.933 19.6291 186.581 19.4293 186.431 19.1296C186.079 18.6301 186.029 17.9309 186.079 17.2816C186.129 16.2826 186.18 14.7842 186.18 13.8852V12.8363H183.318Z" fill="white"/>
<path d="M170.565 10.4889C171.117 9.34008 172.222 9.34008 172.774 9.93944C173.226 10.389 173.226 11.2381 173.276 11.8374C173.376 13.7853 173.075 15.6833 173.276 17.6313C173.376 18.4804 173.577 19.3295 173.929 19.9788C174.431 20.8778 175.234 21.4772 176.59 21.4772C179.351 21.4272 181.611 19.779 183.167 17.6313C183.92 16.5324 184.473 15.4336 184.674 14.6344C184.975 13.5856 183.87 13.6855 183.569 14.5845C183.017 16.1828 178.699 21.4272 176.841 18.78C176.69 18.5303 176.54 18.2306 176.439 17.9309C176.289 17.3316 176.289 16.6323 176.289 15.9331C176.339 15.3337 176.339 11.3879 176.289 10.7885C176.138 8.9405 174.983 7.74178 173.025 7.79173C171.519 7.84167 170.213 8.79066 169.56 10.1392C169.058 11.1382 170.012 11.5877 170.565 10.4889Z" fill="white"/>
<path d="M186.18 13.6355V10.4888V9.73962V9.43993C186.18 8.74068 186.18 8.54089 185.477 8.54089C184.322 8.49094 182.464 8.39105 181.611 8.74068C181.51 8.79063 181.46 8.84057 181.41 8.89052C181.259 9.09031 181.159 9.53983 181.259 9.78956C181.36 9.9394 181.56 9.9394 181.811 9.83951C182.715 9.43993 183.368 9.63972 183.368 10.3889V13.6854H186.18V13.6355Z" fill="white"/>
<path d="M24.4526 30.2678H25.1054V0H24.4526V30.2678Z" fill="white"/>
<path d="M48.8545 30.2678H49.5072V0H48.8545V30.2678Z" fill="white"/>
<path d="M76.2192 30.2678H76.872V0H76.2192V30.2678Z" fill="white"/>
<path d="M106.044 30.2678H106.697V0H106.044V30.2678Z" fill="white"/>
<path d="M135.618 30.2678H136.271V0H135.618V30.2678Z" fill="white"/>
<path d="M165.091 30.2678H165.744V0H165.091V30.2678Z" fill="white"/>
<path d="M17.7245 18.7301C17.1722 19.9288 16.0676 19.8788 15.5153 19.2795C15.0634 18.83 15.0634 17.9809 15.0634 17.3815C14.9128 15.4336 15.2642 13.5356 15.0132 11.5877C14.9128 10.7386 14.7119 9.88948 14.3604 9.24017C13.8583 8.34112 13.055 7.74176 11.6993 7.74176C8.93773 7.79171 6.67826 9.43995 5.12174 11.5877C4.36859 12.6366 3.81628 13.7853 3.61543 14.5845C3.36438 15.6334 4.4188 15.5335 4.72006 14.6344C5.27237 13.0361 9.59046 7.79171 11.4482 10.4389C11.5989 10.6886 11.7495 10.9883 11.8499 11.288C12.0006 11.8874 12.0006 12.5866 12.0006 13.2859C11.9503 13.8852 11.9503 17.831 12.0006 18.4304C12.1512 20.2784 13.306 21.4771 15.2642 21.4272C16.7705 21.3773 18.076 20.4283 18.7287 19.0797C19.2811 18.0808 18.2768 17.6312 17.7245 18.7301Z" fill="white"/>
<path d="M0.803365 21.0277H5.87461C6.12566 21.0277 6.27629 20.9278 6.27629 20.6281V20.5282C6.27629 20.0287 5.87461 20.1286 5.47292 20.0787C5.17166 20.0287 4.97082 19.779 4.97082 19.3295V10.2891V9.53989V9.19026C4.97082 8.44106 4.97082 8.29122 4.21767 8.24127C3.06283 8.19132 1.35568 8.09143 0.451893 8.491C0.351472 8.54095 0.301262 8.5909 0.251052 8.64084C0.100421 8.79069 0 9.04042 0 9.29015V9.3401C0 9.44 0.0502103 9.53989 0.0502103 9.58984C0.150631 9.78962 0.351472 9.73968 0.602524 9.63978C1.50631 9.19026 2.20925 9.39005 2.20925 10.1892V19.3794C2.20925 19.8289 1.80757 20.0787 1.4561 20.1786C1.25526 20.2285 1.00421 20.2785 0.753155 20.2785C0.502103 20.3284 0.451893 20.3784 0.451893 20.728V20.7779V20.8778C0.451893 20.9777 0.602524 21.0277 0.803365 21.0277Z" fill="white"/>
<path d="M134.463 40.0574V45.0521C134.463 45.2019 134.363 45.3018 134.162 45.3018H133.309C133.208 45.3018 133.158 45.2518 133.108 45.2518C133.058 45.2019 133.007 45.1519 133.007 45.0521V40.0574H131.15C131.049 40.0574 130.999 40.0574 130.949 40.0074C130.899 39.9575 130.899 39.9075 130.899 39.8076V39.1583C130.899 39.0584 130.899 38.9585 130.949 38.9585C130.999 38.9086 131.049 38.8586 131.15 38.8586H136.221C136.321 38.8586 136.422 38.9086 136.422 38.9585C136.472 39.0085 136.472 39.0584 136.472 39.1583V39.8076C136.472 39.9075 136.472 40.0074 136.422 40.0074C136.371 40.0574 136.321 40.0574 136.221 40.0574H134.463ZM129.894 44.7024C129.945 44.8023 129.945 44.9022 129.894 44.9522C129.844 45.0021 129.794 45.0521 129.693 45.102C129.442 45.2019 129.141 45.3018 128.739 45.3517C128.338 45.4017 127.986 45.4516 127.685 45.4516C127.083 45.4516 126.58 45.3517 126.179 45.152C125.777 45.0021 125.526 44.7024 125.325 44.4527C125.124 44.153 125.024 43.8034 124.924 43.4038C124.823 43.0042 124.823 42.5547 124.823 42.1052C124.823 41.7056 124.873 41.306 124.924 40.9065C124.974 40.5069 125.124 40.1573 125.325 39.8576C125.526 39.5579 125.827 39.3082 126.179 39.1084C126.58 38.9086 127.032 38.8087 127.635 38.8087C127.785 38.8087 127.936 38.8586 128.137 38.8586C128.288 38.8586 128.488 38.9086 128.689 38.9086C128.89 38.9585 129.041 38.9585 129.191 39.0085C129.392 39.0584 129.543 39.1084 129.693 39.1583C129.844 39.2582 129.894 39.3581 129.894 39.508L129.794 40.0574C129.744 40.1573 129.693 40.2072 129.643 40.2072C129.593 40.2572 129.493 40.2572 129.392 40.2072C129.091 40.1573 128.84 40.1573 128.539 40.1073C128.288 40.0574 127.986 40.0574 127.785 40.0574C127.233 40.0574 126.882 40.2072 126.631 40.5069C126.43 40.8066 126.329 41.356 126.329 42.0552C126.329 42.4548 126.38 42.8044 126.43 43.0542C126.48 43.3039 126.58 43.5536 126.681 43.7035C126.781 43.8533 126.932 43.9532 127.133 44.0531C127.334 44.1031 127.534 44.153 127.785 44.153C127.986 44.153 128.288 44.1031 128.589 44.1031C128.89 44.1031 129.191 44.0531 129.493 44.0032C129.593 43.9532 129.643 43.9532 129.693 44.0032C129.744 44.0531 129.794 44.1031 129.794 44.203L129.894 44.7024ZM114.681 45.0521C114.681 45.2518 114.58 45.3018 114.43 45.3018H113.476C113.325 45.3018 113.224 45.2019 113.224 45.0521L113.275 40.0574H110.463V45.0521C110.463 45.1519 110.413 45.2019 110.413 45.2518C110.363 45.3018 110.312 45.3517 110.212 45.3517H109.258C109.057 45.3517 109.007 45.2518 109.007 45.102V39.1583C109.007 38.9585 109.107 38.9086 109.258 38.9086H114.43C114.53 38.9086 114.58 38.9585 114.63 38.9585C114.681 39.0085 114.681 39.0584 114.681 39.1583V45.0521ZM121.258 44.6025C120.907 44.8523 120.555 45.0521 120.154 45.2019C119.752 45.3517 119.3 45.4516 118.848 45.4516C118.497 45.4516 118.195 45.4017 117.944 45.3018C117.743 45.2019 117.543 45.0521 117.392 44.9022C117.241 44.7524 117.141 44.5526 117.091 44.3029C117.04 44.1031 116.99 43.8034 116.99 43.5536C116.94 42.7545 117.191 42.2051 117.593 41.8555C118.045 41.5058 118.647 41.356 119.501 41.356H121.208V41.0064C121.208 40.8066 121.158 40.6567 121.108 40.5069C121.057 40.357 121.007 40.2572 120.907 40.1573C120.806 40.0574 120.656 40.0074 120.505 40.0074C120.304 39.9575 120.103 39.9575 119.852 39.9575H119.451C119.3 39.9575 119.149 40.0074 118.948 40.0074C118.798 40.0074 118.647 40.0574 118.446 40.0574C118.296 40.1073 118.145 40.1073 117.994 40.1073C117.844 40.1573 117.794 40.1573 117.743 40.1073C117.693 40.1073 117.643 40.0574 117.643 39.9575L117.543 39.458C117.492 39.3581 117.492 39.3082 117.593 39.2582C117.643 39.2083 117.693 39.1084 117.844 39.0584C117.994 39.0085 118.145 38.9585 118.346 38.9086C118.547 38.8586 118.748 38.8586 118.948 38.8087C119.149 38.7587 119.35 38.7587 119.551 38.7587C119.752 38.7587 119.953 38.7088 120.103 38.7088C120.656 38.7088 121.108 38.8087 121.459 38.9086C121.76 39.0085 122.062 39.1583 122.212 39.4081C122.413 39.6078 122.513 39.8576 122.564 40.1573C122.614 40.4569 122.664 40.7566 122.664 41.1562V43.7035C122.664 44.203 122.764 44.3029 123.216 44.5526C123.367 44.6525 123.367 44.7524 123.317 44.9022L123.166 45.2518C123.116 45.3517 123.016 45.4516 122.915 45.4516C122.815 45.5016 122.664 45.4516 122.513 45.4017C122.011 45.2518 121.559 45.102 121.308 44.6025C121.308 44.6025 121.308 44.5526 121.258 44.6025ZM121.208 42.4049H119.601C119.3 42.4049 118.999 42.5048 118.798 42.6546C118.597 42.8044 118.497 43.1041 118.497 43.5536C118.497 43.8034 118.547 44.0531 118.697 44.153C118.798 44.2529 118.999 44.3029 119.3 44.3029C119.451 44.3029 119.601 44.2529 119.802 44.2529C119.953 44.203 120.103 44.153 120.304 44.1031C120.505 44.0032 120.656 43.9532 120.806 43.9033C120.957 43.8034 121.108 43.7534 121.258 43.7035V42.4049H121.208ZM141.392 44.6025C141.091 44.8523 140.69 45.0521 140.288 45.2019C139.836 45.3517 139.434 45.4516 138.982 45.4516C138.631 45.4516 138.33 45.4017 138.079 45.3018C137.878 45.2019 137.677 45.0521 137.526 44.9022C137.376 44.7524 137.275 44.5526 137.225 44.3029C137.175 44.1031 137.125 43.8034 137.125 43.5536C137.125 42.7545 137.325 42.2051 137.727 41.8555C138.179 41.5058 138.782 41.356 139.635 41.356H141.342V41.0064C141.342 40.8066 141.292 40.6567 141.292 40.5069C141.242 40.357 141.192 40.2572 141.091 40.1573C140.991 40.0574 140.84 40.0074 140.639 40.0074C140.438 39.9575 140.238 39.9575 139.987 39.9575H139.585C139.434 39.9575 139.284 40.0074 139.133 40.0074C138.982 40.0074 138.832 40.0574 138.631 40.0574C138.48 40.1073 138.33 40.1073 138.179 40.1073C138.028 40.1573 137.978 40.1573 137.928 40.1073C137.878 40.1073 137.828 40.0574 137.828 39.9575L137.727 39.458C137.677 39.3581 137.727 39.3082 137.777 39.2582C137.828 39.2083 137.928 39.1084 138.028 39.0584C138.179 39.0085 138.33 38.9585 138.53 38.9086C138.731 38.8586 138.932 38.8586 139.133 38.8087C139.334 38.7587 139.535 38.7587 139.736 38.7587C139.936 38.7587 140.137 38.7088 140.288 38.7088C140.89 38.7088 141.292 38.8087 141.644 38.9086C141.995 39.0085 142.246 39.1583 142.447 39.4081C142.598 39.6078 142.748 39.8576 142.798 40.1573C142.849 40.4569 142.849 40.7566 142.849 41.1562V43.7035C142.849 44.203 142.949 44.3029 143.401 44.5526C143.552 44.6525 143.552 44.7524 143.501 44.9022L143.351 45.2518C143.3 45.3517 143.2 45.4516 143.1 45.4516C142.999 45.5016 142.899 45.4516 142.748 45.4017C142.246 45.2518 141.744 45.102 141.543 44.6025C141.443 44.6025 141.443 44.5526 141.392 44.6025ZM141.342 42.4049H139.736C139.384 42.4049 139.133 42.5048 138.932 42.6546C138.731 42.8044 138.631 43.1041 138.631 43.5536C138.631 43.8034 138.731 44.0531 138.832 44.153C138.932 44.2529 139.133 44.3029 139.484 44.3029C139.635 44.3029 139.786 44.2529 139.936 44.2529C140.087 44.203 140.238 44.153 140.438 44.1031C140.589 44.0032 140.74 43.9532 140.941 43.9033C141.091 43.8034 141.242 43.7534 141.342 43.7035V42.4049Z" fill="white"/>
<path d="M79.2318 44.6025C78.9306 44.8523 78.5289 45.0521 78.1272 45.2019C77.7255 45.3517 77.2736 45.4516 76.8217 45.4516C76.4702 45.4516 76.169 45.4017 75.9681 45.3018C75.7171 45.2019 75.5162 45.0521 75.4158 44.9022C75.2652 44.7524 75.1648 44.5526 75.1146 44.3028C75.0644 44.1031 75.0141 43.8034 75.0141 43.5536C75.0141 42.7545 75.215 42.2051 75.6167 41.8555C76.0686 41.5558 76.6711 41.356 77.5247 41.356H79.2318V41.0064C79.2318 40.8066 79.1816 40.6567 79.1816 40.5069C79.1314 40.357 79.0812 40.2572 78.9808 40.1573C78.8803 40.0574 78.7297 40.0074 78.5289 40.0074C78.328 39.9575 78.1272 39.9575 77.8761 39.9575H77.4745C77.3238 39.9575 77.1732 40.0074 77.0226 40.0074C76.8719 40.0074 76.7213 40.0574 76.5205 40.0574C76.3698 40.1073 76.2192 40.1073 76.0686 40.1073C75.9179 40.1573 75.8677 40.1573 75.8175 40.1073C75.7673 40.1073 75.7171 40.0574 75.7171 39.9575L75.6167 39.458C75.5665 39.3581 75.6167 39.3082 75.6669 39.2582C75.7171 39.2083 75.8175 39.1084 75.9179 39.0584C76.0686 39.0085 76.2192 38.9585 76.42 38.9086C76.6209 38.8586 76.8217 38.8586 77.0226 38.8087C77.2234 38.7587 77.4242 38.7587 77.6251 38.7587C77.8259 38.7587 78.0268 38.7088 78.1774 38.7088C78.7799 38.7088 79.1816 38.8087 79.5331 38.9086C79.8845 39.0085 80.1356 39.1583 80.3364 39.4081C80.4871 39.6078 80.6377 39.8576 80.6879 40.1573C80.7381 40.4569 80.7381 40.7566 80.7381 41.1562V43.7035C80.7381 44.203 80.8385 44.3028 81.2904 44.5526C81.4411 44.6525 81.4411 44.7524 81.3909 44.9022L81.2402 45.2518C81.19 45.3517 81.0896 45.4516 80.9892 45.4516C80.8888 45.5016 80.7883 45.4516 80.6377 45.4017C80.1356 45.2518 79.6335 45.102 79.4327 44.6025C79.282 44.6025 79.282 44.5526 79.2318 44.6025ZM79.1816 42.4049H77.5749C77.2234 42.4049 76.9723 42.5048 76.7715 42.6546C76.5707 42.8044 76.4702 43.1041 76.4702 43.5536C76.4702 43.8034 76.5707 44.0531 76.6711 44.153C76.7715 44.2529 76.9723 44.3028 77.3238 44.3028C77.4744 44.3028 77.6251 44.2529 77.7757 44.2529C77.9263 44.203 78.077 44.153 78.2778 44.1031C78.4284 44.0032 78.5791 43.9532 78.7799 43.9033C78.9305 43.8034 79.0812 43.7534 79.2318 43.7035V42.4049H79.1816ZM70.8969 39.1583C70.8969 38.9585 70.9973 38.8586 71.1982 38.8586H72.0517C72.1522 38.8586 72.2024 38.9086 72.2526 38.9086C72.3028 38.9585 72.353 39.0085 72.353 39.1583V44.1031H72.8551C72.9555 44.153 73.0559 44.153 73.0559 44.203C73.1062 44.2529 73.1062 44.3528 73.1062 44.4527L72.9555 46.6504C72.9555 46.8002 72.9053 46.9001 72.9053 46.9001C72.8551 46.95 72.8049 46.95 72.7547 46.95H72.0015C71.9011 46.95 71.8509 46.9001 71.8007 46.9001C71.7505 46.8501 71.7505 46.8002 71.7505 46.6504L71.7003 45.3018H67.1813C66.9805 45.3018 66.8801 45.2019 66.8801 45.0021V39.1583C66.8801 38.9585 66.9805 38.8586 67.1813 38.8586H68.0349C68.2358 38.8586 68.3362 38.9585 68.3362 39.1583V44.1031H70.9471V39.1583H70.8969ZM62.562 39.1583C62.562 38.9585 62.6624 38.8586 62.8632 38.8586H63.7168C63.8172 38.8586 63.8675 38.9086 63.9177 38.9086C63.9679 38.9585 63.9679 39.0085 63.9679 39.1583L64.0181 44.1031H64.5202C64.6206 44.153 64.6708 44.153 64.721 44.203C64.7712 44.2529 64.7712 44.3528 64.721 44.4527L64.5704 46.6504C64.5704 46.8002 64.5202 46.9001 64.5202 46.9001C64.47 46.95 64.4198 46.95 64.3696 46.95H63.6164C63.516 46.95 63.4658 46.9001 63.4156 46.9001C63.3654 46.8501 63.3653 46.8002 63.3151 46.6504L63.2649 45.3018H58.746C58.5452 45.3018 58.4447 45.2019 58.4447 45.0021V39.1583C58.4447 38.9585 58.5452 38.8586 58.746 38.8586H59.5996C59.8004 38.8586 59.8506 38.9585 59.8506 39.1583V44.1031H62.5118V39.1583H62.562ZM50.2102 39.1583C50.2102 39.0584 50.2102 39.0085 50.2605 38.9585C50.3107 38.9086 50.3609 38.8586 50.4613 38.8586H51.3149C51.4153 38.8586 51.5157 38.9086 51.5659 38.9585C51.6161 39.0085 51.6161 39.1084 51.6161 39.1583V43.0042H51.6663L53.3735 40.6567L54.5785 39.1084C54.6288 39.0584 54.679 38.9585 54.7292 38.9585C54.7794 38.9086 54.8798 38.8586 54.9802 38.8586H55.6832C55.7836 38.8586 55.884 38.9086 55.884 38.9585C55.9342 39.0085 55.9844 39.0584 55.9844 39.1583V45.0521C55.9844 45.2518 55.884 45.3517 55.6832 45.3517H54.8296C54.6288 45.3517 54.5283 45.2518 54.5283 45.0521V41.0064C54.2271 41.4559 53.9258 41.8555 53.5743 42.255C53.2731 42.6546 52.9718 43.1041 52.6706 43.5037C52.4697 43.7534 52.2689 44.0032 52.068 44.3028C51.8672 44.5526 51.6663 44.8023 51.4655 45.102C51.4153 45.2019 51.3651 45.2518 51.3149 45.2518C51.2144 45.3018 51.1642 45.3517 51.0136 45.3517H50.4613C50.3609 45.3517 50.2605 45.3018 50.2605 45.2518C50.2102 45.2019 50.2102 45.1519 50.2102 45.0521V39.1583ZM47.7499 45.0521C47.7499 45.2518 47.6495 45.3018 47.4989 45.3018H46.5449C46.3943 45.3018 46.2938 45.2019 46.2938 45.0521V40.0574H43.5323V45.0521C43.5323 45.1519 43.4821 45.2019 43.4821 45.2518C43.4318 45.3018 43.3816 45.3517 43.2812 45.3517H42.3272C42.1766 45.3517 42.0762 45.2518 42.0762 45.102V39.1583C42.0762 38.9585 42.1766 38.9086 42.3272 38.9086H47.4989C47.5993 38.9086 47.6495 38.9585 47.6997 38.9585C47.7499 39.0085 47.7499 39.0584 47.7499 39.1583V45.0521Z" fill="white"/>
<path d="M35.5993 14.3347C36.4027 14.7343 37.5073 14.9341 38.5617 14.8342C39.7668 14.6843 40.6706 14.085 40.8714 12.8862C41.1225 11.4378 40.2689 10.1891 38.9634 9.73959C38.2103 9.48986 37.4069 9.43991 36.5031 9.6397C34.2939 10.1891 33.139 12.4867 33.0888 14.8841C33.0386 17.9309 34.796 19.8788 37.4069 20.0286C38.9634 20.1285 40.1183 19.5791 41.1727 18.6801C42.7292 17.3315 42.93 19.2794 41.2731 20.4282C40.0681 21.2274 38.612 21.4771 37.2061 21.4771C34.093 21.4771 30.8796 19.8289 30.0762 16.6323C29.9256 15.933 29.8252 15.1838 29.8754 14.3847C29.9256 13.3857 30.1766 12.4867 30.5281 11.7375C31.7834 9.04034 34.7458 7.89156 37.6078 7.84161C39.7166 7.84161 41.8756 8.54087 42.5284 10.7885C42.8296 11.8873 42.8296 12.9861 42.2271 13.9851C42.0263 14.3347 41.7752 14.6344 41.4739 14.8841C39.8672 16.2327 36.8546 16.4824 34.9968 15.8331C33.2395 15.2337 33.7918 13.3857 35.5993 14.3347Z" fill="#E30016"/>
<path d="M103.082 38.7088C104.538 37.3103 105.04 36.2614 105.291 35.2126C105.391 34.8629 105.191 34.3635 105.04 34.2136C104.739 34.0138 103.935 34.4134 104.086 35.2625C103.935 36.4612 103.283 37.5601 102.58 38.4591C102.027 39.1584 102.529 39.2083 103.082 38.7088ZM102.329 40.6568C102.881 41.1562 102.68 41.8555 102.278 42.5048C101.525 43.6536 100.471 44.4527 99.2155 44.9522C97.1067 45.8013 94.7468 46.051 92.5375 45.2019C91.2321 44.7524 90.2279 43.8534 88.822 42.6047C88.1692 42.0053 87.1148 41.3061 86.0604 41.1562C85.1566 41.0563 85.5583 40.7567 86.4119 40.457C87.165 40.2072 88.0186 39.9575 89.2739 40.457C90.2279 40.8566 91.3827 41.4559 92.4873 41.6557H92.5375C92.638 41.7057 92.6882 41.7057 92.7886 41.7057C93.7426 41.8555 94.8472 42.1552 95.751 42.5547C95.8514 42.6047 95.9016 42.5547 95.8012 42.4549C95.6506 42.355 95.5502 42.2551 95.3995 42.1052C95.0983 41.9054 94.7468 41.6557 94.4455 41.5059C94.6464 41.406 94.8472 41.356 95.0481 41.2561C95.9518 41.5059 96.956 41.8055 97.7594 42.2551C97.8598 42.305 97.9603 42.305 97.8598 42.1552C97.7594 42.0553 97.659 41.9554 97.5586 41.8555C97.0565 41.356 96.5544 41.0563 96.0021 40.7567C96.2029 40.6068 96.4037 40.5069 96.6046 40.3571C97.5586 40.6568 98.6632 41.1562 99.3661 41.6058C99.567 41.7057 99.6674 41.6557 99.4666 41.4559C98.9143 40.9065 98.1109 40.2572 97.2573 39.8576C97.4079 39.7078 97.5586 39.6079 97.7092 39.458C98.5628 39.7078 99.567 40.1074 100.521 40.6568C100.722 40.7567 100.772 40.6568 100.672 40.5069C99.9687 39.6079 99.0147 39.1084 98.4122 38.8087H98.4624C98.613 38.6089 98.8138 38.4092 99.0147 38.2593C99.6172 37.8597 100.421 38.1095 100.772 38.7588C101.575 38.6089 102.58 39.7577 102.329 40.6568Z" fill="#E30016"/>
</svg>
